<svg width="18" height="13" viewBox="0 0 18 13" version="1.1" xmlns="http://www.w3.org/2000/svg" xmlns:xlink="http://www.w3.org/1999/xlink">
<title>noun_934162</title>
<desc>Created using Figma</desc>
<g id="Canvas" transform="translate(-1443 -130)">
<g id="noun_934162">
<g id="Group">
<g id="Vector">
<use xlink:href="#path0_fill" transform="translate(1443.31 130.034)" fill="#8BE88B"/>
</g>
</g>
</g>
</g>
<defs>
<path id="path0_fill" d="M 5.34859 12.0646C 3.50351 11.9032 1.92026 10.9239 0.925618 9.32866C 0.302333 8.32903 -9.5292e-07 7.25259 -9.5292e-07 6.03303C -9.5292e-07 4.81348 0.302333 3.73704 0.925618 2.73741C 1.65337 1.57024 2.70351 0.724611 3.97056 0.285455C 4.54434 0.0865844 5.07606 0.00129226 5.74206 0.00129226C 6.71035 0.00129226 7.52536 0.206162 8.37837 0.663984L 8.62007 0.793712L 8.86178 0.663984C 9.46299 0.341304 10.0469 0.148532 10.7449 0.0423443C 11.1159 -0.0141147 11.8802 -0.0141147 12.2513 0.0423443C 13.5711 0.243154 14.7003 0.838189 15.6036 1.80889C 16.4865 2.75778 17.0152 3.89385 17.2011 5.24181C 17.2548 5.6316 17.2548 6.43447 17.2011 6.82426C 16.9538 8.61728 16.0517 10.118 14.6354 11.0925C 13.6838 11.7472 12.6591 12.0648 11.4981 12.0648C 10.5298 12.0648 9.71479 11.8599 8.86178 11.4021L 8.62007 11.2724L 8.37837 11.4021C 7.57275 11.8345 6.77227 12.0459 5.86573 12.0656C 5.64313 12.0705 5.41042 12.07 5.34859 12.0646L 5.34859 12.0646ZM 6.09057 11.6301C 6.62571 11.5897 7.03588 11.504 7.51834 11.3319C 7.73692 11.254 8.21535 11.0329 8.21535 11.0098C 8.21535 11.0043 8.11671 10.9212 7.99615 10.8251C 7.71087 10.5979 7.26786 10.1453 7.0392 9.84746C 6.36059 8.96363 5.95378 7.97508 5.7951 6.82426C 5.74135 6.43447 5.74135 5.6316 5.7951 5.24181C 5.95376 4.09118 6.35998 3.10391 7.03904 2.21858C 7.27324 1.91323 7.74364 1.43683 8.01851 1.22662C 8.13741 1.13569 8.2354 1.05487 8.23627 1.04704C 8.23909 1.02142 7.75997 0.796909 7.51834 0.710621C 6.36194 0.297674 5.17956 0.297325 4.01076 0.709589C 3.69344 0.821518 3.10889 1.12515 2.81909 1.32859C 1.69539 2.11742 0.911626 3.27317 0.581813 4.62772C 0.455362 5.14706 0.425866 5.41062 0.425866 6.02122C 0.425866 6.63183 0.455362 6.89539 0.581813 7.41473C 0.819251 8.3899 1.30828 9.29039 1.98646 10.0012C 2.40917 10.4443 2.85698 10.7777 3.41492 11.0646C 4.14356 11.4393 4.80497 11.6083 5.70834 11.6507C 5.74544 11.6525 5.91744 11.6432 6.09057 11.6301Z"/>
</defs>
</svg>
