<svg xmlns="http://www.w3.org/2000/svg" xmlns:xlink="http://www.w3.org/1999/xlink" version="1.1" x="0px" y="0px" viewBox="15 15 70 70" enable-background="new 0 0 100 100" xml:space="preserve"><g fill="white" transform="rotate(-45, 50, 50)"><path d="M50.015,82.6c8.352,0,16.704-3.179,23.062-9.537c0.977-0.976,0.977-2.559,0-3.535s-2.559-0.977-3.535,0  c-10.769,10.766-28.287,10.765-39.054,0c-10.767-10.768-10.767-28.287,0-39.055c10.768-10.766,28.286-10.766,39.054,0  c0.977,0.977,2.559,0.977,3.535,0s0.977-2.56,0-3.535c-12.717-12.717-33.408-12.717-46.124,0c-12.717,12.717-12.717,33.408,0,46.125  C33.311,79.421,41.663,82.6,50.015,82.6z"/><path d="M94.37,48.229c-0.002-0.002-0.003-0.002-0.005-0.004L83.725,37.585c-0.977-0.977-2.559-0.977-3.535,0s-0.977,2.559,0,3.535  l6.38,6.38H57.063c-1.03-2.903-3.792-4.985-7.048-4.985c-4.134,0-7.485,3.351-7.485,7.485c0,4.134,3.351,7.485,7.485,7.485  c3.256,0,6.018-2.082,7.048-4.985h29.506l-6.38,6.38c-0.977,0.977-0.977,2.559,0,3.535c0.488,0.488,1.128,0.732,1.768,0.732  s1.279-0.244,1.768-0.732L96.14,50l-1.765-1.765C94.373,48.233,94.372,48.231,94.37,48.229z"/></g></svg>
