<svg xmlns="http://www.w3.org/2000/svg" data-name="Layer 1" viewBox="0 0 100 100" x="0px" y="0px"><title>13</title><g fill="white" data-name="Group"><path data-name="Path" d="M41.79,35.26a2,2,0,0,0-2,2V62.74a2,2,0,1,0,4,0V37.26A2,2,0,0,0,41.79,35.26Z"/><path data-name="Path" d="M58.21,35.26a2,2,0,0,0-2,2V62.74a2,2,0,1,0,4,0V37.26A2,2,0,0,0,58.21,35.26Z"/><path data-name="Compound Path" d="M50,18.44A31.56,31.56,0,1,0,81.56,50,31.6,31.6,0,0,0,50,18.44Zm0,59.12A27.56,27.56,0,1,1,77.56,50,27.59,27.59,0,0,1,50,77.56Z"/></g></svg>
