<svg xmlns="http://www.w3.org/2000/svg" xmlns:xlink="http://www.w3.org/1999/xlink" version="1.0" x="0px" y="0px" viewBox="0 0 32 32" enable-background="new 0 0 32 32" xml:space="preserve">
    <path  fill="#444444" d="M27.773,22.766c2.379-6.494-0.967-13.711-7.459-16.091c-4.11-1.506-8.5-0.707-11.777,1.721l1.483-6.743L7.09,1.009  l-1.946,8.85L4.5,12.79l2.93,0.646v-0.001l8.85,1.948l0.645-2.931l-6.794-1.494c2.514-1.963,5.943-2.642,9.152-1.466  c4.939,1.81,7.486,7.302,5.676,12.242c-1.811,4.938-7.302,7.484-12.242,5.675c-4.155-1.522-6.604-5.646-6.207-9.858l-2.896-1.06  c-0.918,5.798,2.354,11.64,8.07,13.735C18.178,32.604,25.395,29.259,27.773,22.766z"/>
</svg>
