<svg xmlns="http://www.w3.org/2000/svg" xmlns:xlink="http://www.w3.org/1999/xlink" version="1.1" x="0px" y="0px" viewBox="0 0 100 100" style="enable-background:new 0 0 100 100;" xml:space="preserve">
    <g>
        <g>
            <path fill="#444444" d="M91.9,30.6H75.8l-10.2-14c-0.7-1-1.9-1.6-3.1-1.6H38.8c-1.2,0-2.4,0.6-3.1,1.6l-9.6,14H8.5c-1.9,0-3.5,1.6-3.5,3.5v49.4    c0,1.9,1.6,3.5,3.5,3.5h83.4c1.9,0,3.5-1.6,3.5-3.5V34.1C95.5,32.2,93.9,30.6,91.9,30.6z M88.4,80H12.1V37.6h16.8    c1.7,0,3.1-1.2,3.5-2.8l8.5-12.3h19.8l9,12.3c0.4,1.6,1.8,2.8,3.4,2.8h15.4V80z"/>
            <g>
                <path fill="#444444" d="M50.2,73.9c-9.8,0-17.7-7.9-17.7-17.7s7.9-17.7,17.7-17.7s17.7,7.9,17.7,17.7S60,73.9,50.2,73.9z M50.2,46.1     c-5.6,0-10.1,4.5-10.1,10.1s4.5,10.1,10.1,10.1s10.1-4.5,10.1-10.1S55.8,46.1,50.2,46.1z"/>
            </g>
            <g>
                <circle fill="#444444" cx="79.8" cy="44.7" r="2.4"/></g>
        </g>
    </g>
</svg>
